<mxfile host="app.diagrams.net" agent="Mozilla/5.0 (Windows NT 10.0; Win64; x64) AppleWebKit/537.36 (KHTML, like Gecko) Chrome/136.0.0.0 Safari/537.36 Edg/136.0.0.0" version="27.0.3">
  <diagram name="第 1 页" id="ZXgfIUKaA7d_nlXjczE4">
    <mxGraphModel dx="1765" dy="972" grid="1" gridSize="10" guides="1" tooltips="1" connect="1" arrows="1" fold="1" page="1" pageScale="1" pageWidth="827" pageHeight="1169" math="0" shadow="0">
      <root>
        <mxCell id="0" />
        <mxCell id="1" parent="0" />
        <mxCell id="4ArGo3lXftrDa4e6HZrV-6" value="&lt;font style=&quot;font-size: 16px;&quot;&gt;用户&lt;/font&gt;" style="rounded=0;whiteSpace=wrap;html=1;" vertex="1" parent="1">
          <mxGeometry x="210" y="275" width="80" height="40" as="geometry" />
        </mxCell>
        <mxCell id="4ArGo3lXftrDa4e6HZrV-7" value="&lt;font style=&quot;font-size: 16px;&quot;&gt;设备&lt;/font&gt;" style="rounded=0;whiteSpace=wrap;html=1;" vertex="1" parent="1">
          <mxGeometry x="520" y="245" width="80" height="40" as="geometry" />
        </mxCell>
        <mxCell id="4ArGo3lXftrDa4e6HZrV-8" value="&lt;font style=&quot;font-size: 16px;&quot;&gt;关联&lt;/font&gt;" style="rhombus;whiteSpace=wrap;html=1;" vertex="1" parent="1">
          <mxGeometry x="360" y="250" width="80" height="60" as="geometry" />
        </mxCell>
        <mxCell id="4ArGo3lXftrDa4e6HZrV-9" value="" style="endArrow=none;html=1;rounded=0;entryX=0;entryY=0.5;entryDx=0;entryDy=0;exitX=1;exitY=0;exitDx=0;exitDy=0;" edge="1" parent="1" source="4ArGo3lXftrDa4e6HZrV-6" target="4ArGo3lXftrDa4e6HZrV-8">
          <mxGeometry width="50" height="50" relative="1" as="geometry">
            <mxPoint x="290" y="310" as="sourcePoint" />
            <mxPoint x="340" y="300" as="targetPoint" />
          </mxGeometry>
        </mxCell>
        <mxCell id="4ArGo3lXftrDa4e6HZrV-10" value="" style="endArrow=none;html=1;rounded=0;exitX=1;exitY=0.5;exitDx=0;exitDy=0;entryX=0;entryY=1;entryDx=0;entryDy=0;" edge="1" parent="1" source="4ArGo3lXftrDa4e6HZrV-8" target="4ArGo3lXftrDa4e6HZrV-7">
          <mxGeometry width="50" height="50" relative="1" as="geometry">
            <mxPoint x="420" y="300" as="sourcePoint" />
            <mxPoint x="460" y="260" as="targetPoint" />
          </mxGeometry>
        </mxCell>
        <mxCell id="4ArGo3lXftrDa4e6HZrV-11" value="&lt;p class=&quot;MsoNormal&quot;&gt;&lt;font face=&quot;Helvetica&quot; style=&quot;font-size: 16px;&quot;&gt;用户编号&lt;/font&gt;&lt;/p&gt;" style="ellipse;whiteSpace=wrap;html=1;" vertex="1" parent="1">
          <mxGeometry x="120" y="380" width="80" height="40" as="geometry" />
        </mxCell>
        <mxCell id="4ArGo3lXftrDa4e6HZrV-12" value="&lt;p class=&quot;MsoNormal&quot;&gt;&lt;font face=&quot;Helvetica&quot; style=&quot;font-size: 16px;&quot;&gt;用户昵称&lt;/font&gt;&lt;/p&gt;" style="ellipse;whiteSpace=wrap;html=1;" vertex="1" parent="1">
          <mxGeometry x="200" y="150" width="80" height="40" as="geometry" />
        </mxCell>
        <mxCell id="4ArGo3lXftrDa4e6HZrV-13" value="&lt;p class=&quot;MsoNormal&quot;&gt;&lt;font face=&quot;Helvetica&quot; style=&quot;font-size: 16px;&quot;&gt;用户名&lt;/font&gt;&lt;/p&gt;" style="ellipse;whiteSpace=wrap;html=1;" vertex="1" parent="1">
          <mxGeometry x="230" y="400" width="80" height="40" as="geometry" />
        </mxCell>
        <mxCell id="4ArGo3lXftrDa4e6HZrV-14" value="&lt;p class=&quot;MsoNormal&quot;&gt;&lt;font face=&quot;Helvetica&quot; style=&quot;font-size: 16px;&quot;&gt;邮箱&lt;/font&gt;&lt;/p&gt;" style="ellipse;whiteSpace=wrap;html=1;" vertex="1" parent="1">
          <mxGeometry x="350" y="390" width="80" height="40" as="geometry" />
        </mxCell>
        <mxCell id="4ArGo3lXftrDa4e6HZrV-15" value="&lt;p class=&quot;MsoNormal&quot;&gt;&lt;font face=&quot;Helvetica&quot; style=&quot;font-size: 16px;&quot;&gt;密码&lt;/font&gt;&lt;/p&gt;" style="ellipse;whiteSpace=wrap;html=1;" vertex="1" parent="1">
          <mxGeometry x="50" y="240" width="80" height="40" as="geometry" />
        </mxCell>
        <mxCell id="4ArGo3lXftrDa4e6HZrV-16" value="&lt;p class=&quot;MsoNormal&quot;&gt;&lt;font style=&quot;font-size: 16px;&quot;&gt;手机号&lt;/font&gt;&lt;/p&gt;" style="ellipse;whiteSpace=wrap;html=1;" vertex="1" parent="1">
          <mxGeometry x="50" y="330" width="80" height="40" as="geometry" />
        </mxCell>
        <mxCell id="4ArGo3lXftrDa4e6HZrV-17" value="&lt;p class=&quot;MsoNormal&quot;&gt;&lt;font face=&quot;Helvetica&quot; style=&quot;font-size: 16px;&quot;&gt;性别&lt;/font&gt;&lt;/p&gt;" style="ellipse;whiteSpace=wrap;html=1;" vertex="1" parent="1">
          <mxGeometry x="365" y="320" width="80" height="40" as="geometry" />
        </mxCell>
        <mxCell id="4ArGo3lXftrDa4e6HZrV-18" value="&lt;p class=&quot;MsoNormal&quot;&gt;&lt;font style=&quot;font-size: 16px;&quot;&gt;头像&lt;/font&gt;&lt;/p&gt;" style="ellipse;whiteSpace=wrap;html=1;" vertex="1" parent="1">
          <mxGeometry x="100" y="180" width="80" height="40" as="geometry" />
        </mxCell>
        <mxCell id="4ArGo3lXftrDa4e6HZrV-19" value="&lt;p class=&quot;MsoNormal&quot;&gt;&lt;font face=&quot;Helvetica&quot; style=&quot;font-size: 16px;&quot;&gt;创建时间&lt;/font&gt;&lt;/p&gt;" style="ellipse;whiteSpace=wrap;html=1;" vertex="1" parent="1">
          <mxGeometry x="300" y="170" width="90" height="40" as="geometry" />
        </mxCell>
        <mxCell id="4ArGo3lXftrDa4e6HZrV-20" value="" style="endArrow=none;html=1;rounded=0;exitX=0.387;exitY=0.024;exitDx=0;exitDy=0;exitPerimeter=0;entryX=0.5;entryY=1;entryDx=0;entryDy=0;" edge="1" parent="1" source="4ArGo3lXftrDa4e6HZrV-13" target="4ArGo3lXftrDa4e6HZrV-6">
          <mxGeometry width="50" height="50" relative="1" as="geometry">
            <mxPoint x="270" y="410" as="sourcePoint" />
            <mxPoint x="250" y="320" as="targetPoint" />
          </mxGeometry>
        </mxCell>
        <mxCell id="4ArGo3lXftrDa4e6HZrV-21" value="" style="endArrow=none;html=1;rounded=0;exitX=-0.014;exitY=0.324;exitDx=0;exitDy=0;entryX=1;entryY=0.75;entryDx=0;entryDy=0;exitPerimeter=0;" edge="1" parent="1" source="4ArGo3lXftrDa4e6HZrV-14" target="4ArGo3lXftrDa4e6HZrV-6">
          <mxGeometry width="50" height="50" relative="1" as="geometry">
            <mxPoint x="200" y="400" as="sourcePoint" />
            <mxPoint x="250" y="350" as="targetPoint" />
          </mxGeometry>
        </mxCell>
        <mxCell id="4ArGo3lXftrDa4e6HZrV-22" value="" style="endArrow=none;html=1;rounded=0;exitX=0.018;exitY=0.316;exitDx=0;exitDy=0;exitPerimeter=0;entryX=1;entryY=0.25;entryDx=0;entryDy=0;" edge="1" parent="1" source="4ArGo3lXftrDa4e6HZrV-17" target="4ArGo3lXftrDa4e6HZrV-6">
          <mxGeometry width="50" height="50" relative="1" as="geometry">
            <mxPoint x="280" y="435" as="sourcePoint" />
            <mxPoint x="260" y="350" as="targetPoint" />
          </mxGeometry>
        </mxCell>
        <mxCell id="4ArGo3lXftrDa4e6HZrV-23" value="" style="endArrow=none;html=1;rounded=0;entryX=0.25;entryY=1;entryDx=0;entryDy=0;" edge="1" parent="1" source="4ArGo3lXftrDa4e6HZrV-11" target="4ArGo3lXftrDa4e6HZrV-6">
          <mxGeometry width="50" height="50" relative="1" as="geometry">
            <mxPoint x="148" y="356" as="sourcePoint" />
            <mxPoint x="210" y="310" as="targetPoint" />
          </mxGeometry>
        </mxCell>
        <mxCell id="4ArGo3lXftrDa4e6HZrV-24" value="" style="endArrow=none;html=1;rounded=0;exitX=1;exitY=0;exitDx=0;exitDy=0;entryX=0;entryY=0.75;entryDx=0;entryDy=0;" edge="1" parent="1" source="4ArGo3lXftrDa4e6HZrV-16" target="4ArGo3lXftrDa4e6HZrV-6">
          <mxGeometry width="50" height="50" relative="1" as="geometry">
            <mxPoint x="130" y="300" as="sourcePoint" />
            <mxPoint x="220" y="280" as="targetPoint" />
          </mxGeometry>
        </mxCell>
        <mxCell id="4ArGo3lXftrDa4e6HZrV-25" value="" style="endArrow=none;html=1;rounded=0;exitX=1;exitY=0.5;exitDx=0;exitDy=0;entryX=0;entryY=0;entryDx=0;entryDy=0;" edge="1" parent="1" source="4ArGo3lXftrDa4e6HZrV-15" target="4ArGo3lXftrDa4e6HZrV-6">
          <mxGeometry width="50" height="50" relative="1" as="geometry">
            <mxPoint x="160" y="250" as="sourcePoint" />
            <mxPoint x="250" y="330" as="targetPoint" />
          </mxGeometry>
        </mxCell>
        <mxCell id="4ArGo3lXftrDa4e6HZrV-26" value="" style="endArrow=none;html=1;rounded=0;exitX=1;exitY=1;exitDx=0;exitDy=0;entryX=0.25;entryY=0;entryDx=0;entryDy=0;" edge="1" parent="1" target="4ArGo3lXftrDa4e6HZrV-6" source="4ArGo3lXftrDa4e6HZrV-18">
          <mxGeometry width="50" height="50" relative="1" as="geometry">
            <mxPoint x="200" y="214" as="sourcePoint" />
            <mxPoint x="272" y="270" as="targetPoint" />
          </mxGeometry>
        </mxCell>
        <mxCell id="4ArGo3lXftrDa4e6HZrV-27" value="" style="endArrow=none;html=1;rounded=0;exitX=1;exitY=1;exitDx=0;exitDy=0;entryX=0.5;entryY=0;entryDx=0;entryDy=0;" edge="1" parent="1" target="4ArGo3lXftrDa4e6HZrV-6">
          <mxGeometry width="50" height="50" relative="1" as="geometry">
            <mxPoint x="245" y="190" as="sourcePoint" />
            <mxPoint x="275" y="286" as="targetPoint" />
          </mxGeometry>
        </mxCell>
        <mxCell id="4ArGo3lXftrDa4e6HZrV-28" value="" style="endArrow=none;html=1;rounded=0;exitX=0.263;exitY=0.956;exitDx=0;exitDy=0;entryX=0.75;entryY=0;entryDx=0;entryDy=0;exitPerimeter=0;" edge="1" parent="1" source="4ArGo3lXftrDa4e6HZrV-19" target="4ArGo3lXftrDa4e6HZrV-6">
          <mxGeometry width="50" height="50" relative="1" as="geometry">
            <mxPoint x="295" y="180" as="sourcePoint" />
            <mxPoint x="290" y="300" as="targetPoint" />
          </mxGeometry>
        </mxCell>
        <mxCell id="4ArGo3lXftrDa4e6HZrV-29" value="&lt;p class=&quot;MsoNormal&quot;&gt;&lt;font face=&quot;Helvetica&quot; style=&quot;font-size: 16px;&quot;&gt;设备名称&lt;/font&gt;&lt;/p&gt;" style="ellipse;whiteSpace=wrap;html=1;" vertex="1" parent="1">
          <mxGeometry x="590" y="150" width="80" height="40" as="geometry" />
        </mxCell>
        <mxCell id="4ArGo3lXftrDa4e6HZrV-30" value="&lt;p class=&quot;MsoNormal&quot;&gt;&lt;font face=&quot;Helvetica&quot; style=&quot;font-size: 16px;&quot;&gt;在线状态&lt;/font&gt;&lt;/p&gt;" style="ellipse;whiteSpace=wrap;html=1;" vertex="1" parent="1">
          <mxGeometry x="670" y="210" width="80" height="40" as="geometry" />
        </mxCell>
        <mxCell id="4ArGo3lXftrDa4e6HZrV-31" value="&lt;p class=&quot;MsoNormal&quot;&gt;&lt;font face=&quot;Helvetica&quot; style=&quot;font-size: 16px;&quot;&gt;用户编号&lt;/font&gt;&lt;/p&gt;" style="ellipse;whiteSpace=wrap;html=1;" vertex="1" parent="1">
          <mxGeometry x="680" y="300" width="80" height="40" as="geometry" />
        </mxCell>
        <mxCell id="4ArGo3lXftrDa4e6HZrV-32" value="&lt;p class=&quot;MsoNormal&quot;&gt;&lt;font face=&quot;Helvetica&quot; style=&quot;font-size: 16px;&quot;&gt;最后活跃时间&lt;/font&gt;&lt;/p&gt;" style="ellipse;whiteSpace=wrap;html=1;" vertex="1" parent="1">
          <mxGeometry x="585" y="380" width="110" height="40" as="geometry" />
        </mxCell>
        <mxCell id="4ArGo3lXftrDa4e6HZrV-33" value="&lt;p class=&quot;MsoNormal&quot;&gt;&lt;font face=&quot;Helvetica&quot; style=&quot;font-size: 16px;&quot;&gt;所属产品编号&lt;/font&gt;&lt;/p&gt;" style="ellipse;whiteSpace=wrap;html=1;" vertex="1" parent="1">
          <mxGeometry x="445" y="150" width="110" height="40" as="geometry" />
        </mxCell>
        <mxCell id="4ArGo3lXftrDa4e6HZrV-34" value="&lt;p class=&quot;MsoNormal&quot;&gt;&lt;span style=&quot;color: rgb(0, 0, 0);&quot;&gt;&lt;font face=&quot;Helvetica&quot; style=&quot;font-size: 16px;&quot;&gt;创建时间&lt;/font&gt;&lt;/span&gt;&lt;/p&gt;" style="ellipse;whiteSpace=wrap;html=1;" vertex="1" parent="1">
          <mxGeometry x="475" y="380" width="80" height="40" as="geometry" />
        </mxCell>
        <mxCell id="4ArGo3lXftrDa4e6HZrV-35" value="" style="endArrow=none;html=1;rounded=0;entryX=0.416;entryY=0.976;entryDx=0;entryDy=0;entryPerimeter=0;exitX=0.25;exitY=0;exitDx=0;exitDy=0;" edge="1" parent="1" source="4ArGo3lXftrDa4e6HZrV-7" target="4ArGo3lXftrDa4e6HZrV-33">
          <mxGeometry width="50" height="50" relative="1" as="geometry">
            <mxPoint x="510" y="210" as="sourcePoint" />
            <mxPoint x="550" y="170" as="targetPoint" />
          </mxGeometry>
        </mxCell>
        <mxCell id="4ArGo3lXftrDa4e6HZrV-36" value="" style="endArrow=none;html=1;rounded=0;entryX=0;entryY=1;entryDx=0;entryDy=0;exitX=0.5;exitY=0;exitDx=0;exitDy=0;" edge="1" parent="1" source="4ArGo3lXftrDa4e6HZrV-7" target="4ArGo3lXftrDa4e6HZrV-29">
          <mxGeometry width="50" height="50" relative="1" as="geometry">
            <mxPoint x="570" y="240" as="sourcePoint" />
            <mxPoint x="598" y="170.5" as="targetPoint" />
          </mxGeometry>
        </mxCell>
        <mxCell id="4ArGo3lXftrDa4e6HZrV-37" value="" style="endArrow=none;html=1;rounded=0;entryX=0;entryY=0.5;entryDx=0;entryDy=0;exitX=1;exitY=0.75;exitDx=0;exitDy=0;" edge="1" parent="1" source="4ArGo3lXftrDa4e6HZrV-7" target="4ArGo3lXftrDa4e6HZrV-30">
          <mxGeometry width="50" height="50" relative="1" as="geometry">
            <mxPoint x="538" y="245.5" as="sourcePoint" />
            <mxPoint x="640" y="200" as="targetPoint" />
          </mxGeometry>
        </mxCell>
        <mxCell id="4ArGo3lXftrDa4e6HZrV-38" value="" style="endArrow=none;html=1;rounded=0;entryX=0;entryY=0.5;entryDx=0;entryDy=0;exitX=1;exitY=1;exitDx=0;exitDy=0;" edge="1" parent="1" source="4ArGo3lXftrDa4e6HZrV-7" target="4ArGo3lXftrDa4e6HZrV-31">
          <mxGeometry width="50" height="50" relative="1" as="geometry">
            <mxPoint x="538" y="260" as="sourcePoint" />
            <mxPoint x="670" y="234.5" as="targetPoint" />
          </mxGeometry>
        </mxCell>
        <mxCell id="4ArGo3lXftrDa4e6HZrV-39" value="" style="endArrow=none;html=1;rounded=0;entryX=0.245;entryY=0.129;entryDx=0;entryDy=0;entryPerimeter=0;exitX=0.895;exitY=1.062;exitDx=0;exitDy=0;exitPerimeter=0;" edge="1" parent="1" source="4ArGo3lXftrDa4e6HZrV-7" target="4ArGo3lXftrDa4e6HZrV-32">
          <mxGeometry width="50" height="50" relative="1" as="geometry">
            <mxPoint x="510" y="260" as="sourcePoint" />
            <mxPoint x="652" y="280" as="targetPoint" />
          </mxGeometry>
        </mxCell>
        <mxCell id="4ArGo3lXftrDa4e6HZrV-40" value="" style="endArrow=none;html=1;rounded=0;exitX=0.25;exitY=1;exitDx=0;exitDy=0;entryX=0.5;entryY=0;entryDx=0;entryDy=0;" edge="1" parent="1" source="4ArGo3lXftrDa4e6HZrV-7" target="4ArGo3lXftrDa4e6HZrV-34">
          <mxGeometry width="50" height="50" relative="1" as="geometry">
            <mxPoint x="530" y="270" as="sourcePoint" />
            <mxPoint x="520" y="400" as="targetPoint" />
          </mxGeometry>
        </mxCell>
        <mxCell id="4ArGo3lXftrDa4e6HZrV-124" value="&lt;font style=&quot;font-size: 16px;&quot;&gt;1&lt;/font&gt;" style="text;html=1;align=center;verticalAlign=middle;whiteSpace=wrap;rounded=0;" vertex="1" parent="1">
          <mxGeometry x="305" y="246" width="60" height="30" as="geometry" />
        </mxCell>
        <mxCell id="4ArGo3lXftrDa4e6HZrV-125" value="&lt;span style=&quot;font-size: 16px;&quot;&gt;N&lt;/span&gt;" style="text;html=1;align=center;verticalAlign=middle;whiteSpace=wrap;rounded=0;" vertex="1" parent="1">
          <mxGeometry x="446" y="252" width="60" height="30" as="geometry" />
        </mxCell>
      </root>
    </mxGraphModel>
  </diagram>
</mxfile>
